<svg width="512" height="512" viewBox="0 0 512 512" fill="none" xmlns="http://www.w3.org/2000/svg">
    <path
        d="M161.286 286.769H55.1609C55.1811 287.302 55.1945 287.829 55.2213 288.355C55.2615 289.374 55.3353 290.385 55.3956 291.404C55.4224 291.841 55.4425 292.279 55.4761 292.709C55.5565 293.885 55.6571 295.061 55.7644 296.23C55.7912 296.496 55.8113 296.763 55.8381 297.016C55.9588 298.322 56.0996 299.627 56.2471 300.919C56.2538 301.042 56.2672 301.172 56.2873 301.295C56.4549 302.69 56.6292 304.091 56.8304 305.479C56.8304 305.499 56.8304 305.52 56.8371 305.533C58.0606 314.178 59.8935 322.722 62.3213 331.099C62.3347 331.133 62.3481 331.167 62.3549 331.201C62.737 332.528 63.1393 333.84 63.5482 335.146C63.5751 335.221 63.6019 335.303 63.622 335.378C63.6421 335.453 63.6689 335.528 63.6957 335.61C64.0712 336.793 64.4668 337.969 64.8623 339.151C64.9629 339.445 65.0635 339.746 65.1707 340.047C65.5261 341.065 65.8881 342.084 66.2636 343.109C66.4379 343.567 66.6055 344.025 66.7731 344.49C67.1016 345.338 67.4167 346.178 67.7453 347.019C67.9933 347.655 68.2481 348.291 68.5096 348.92C68.7777 349.583 69.0459 350.232 69.3208 350.895C69.656 351.702 70.0114 352.502 70.36 353.308C70.5678 353.787 70.7824 354.258 70.9902 354.737C71.4193 355.701 71.8618 356.664 72.311 357.621C72.4585 357.929 72.5993 358.237 72.7468 358.537C73.2697 359.645 73.7994 360.732 74.3358 361.819C74.4296 361.983 74.5034 362.154 74.5905 362.318C75.1939 363.521 75.8107 364.717 76.4477 365.906C76.4745 365.961 76.508 366.009 76.5281 366.07C76.6622 366.317 76.8097 366.556 76.9438 366.802L167.582 311.139L167.917 310.934C164.343 303.25 162.117 295.075 161.286 286.769Z"
        fill="#93D500" />
    <path
        d="M187.373 336.444L187.118 336.704L112.364 412.916C112.746 413.278 113.128 413.654 113.523 414.002C114.221 414.652 114.931 415.288 115.635 415.923C116.004 416.251 116.359 416.58 116.728 416.908C117.573 417.653 118.431 418.377 119.283 419.109C119.517 419.307 119.739 419.498 119.973 419.697C121.06 420.608 122.157 421.506 123.265 422.39C124.324 423.244 125.39 424.071 126.477 424.905C126.523 424.933 126.557 424.96 126.597 424.994C131.107 428.43 135.775 431.646 140.583 434.633C140.744 434.742 140.911 434.838 141.079 434.947C141.997 435.501 142.909 436.055 143.834 436.601L145.524 437.586C146.06 437.9 146.59 438.201 147.126 438.502C148.098 439.042 149.071 439.582 150.049 440.108C150.184 440.183 150.318 440.258 150.458 440.327C153.174 441.776 155.936 443.123 158.725 444.421L161.38 437.852L198.979 344.77L199.113 344.428C195.01 342.186 191.074 339.534 187.373 336.444Z"
        fill="#4D5A31" />
    <path
        d="M179.589 328.85C178.786 327.938 178.008 327.004 177.256 326.047C176.586 325.206 175.942 324.359 175.318 323.498C174.601 322.513 173.904 321.515 173.24 320.504C172.576 319.485 171.919 318.46 171.302 317.421L80.5507 373.152C81.9453 375.517 83.3934 377.814 84.8818 380.084C84.9287 380.166 84.9757 380.248 85.0293 380.323C85.0427 380.357 85.0628 380.378 85.0829 380.412C85.1299 380.48 85.1768 380.562 85.2237 380.637C85.2304 380.644 85.2371 380.651 85.2371 380.665C85.3578 380.842 85.4785 381.02 85.5992 381.205C85.6059 381.212 85.6126 381.225 85.626 381.239C85.6394 381.253 85.6327 381.246 85.6327 381.253C87.2083 383.625 88.8307 385.962 90.5002 388.246C90.5337 388.293 90.5739 388.341 90.6074 388.389C90.6477 388.437 90.6812 388.485 90.7147 388.533C91.4455 389.51 92.1696 390.488 92.9205 391.458C93.021 391.588 93.1149 391.711 93.2222 391.834C93.9865 392.839 94.7709 393.83 95.5687 394.808C95.7565 395.04 95.9509 395.273 96.1386 395.512C96.856 396.387 97.5734 397.255 98.3042 398.116C98.6193 398.485 98.9411 398.861 99.2629 399.224C99.8864 399.948 100.503 400.673 101.14 401.384C101.489 401.773 101.851 402.17 102.206 402.56C102.367 402.744 102.528 402.915 102.696 403.1C103.158 403.612 103.621 404.125 104.09 404.631C104.278 404.829 104.479 405.027 104.667 405.232C105.491 406.107 106.329 406.989 107.174 407.85L182.043 331.53C181.185 330.655 180.38 329.752 179.589 328.85Z"
        fill="#6BA43A" />
    <path
        d="M278.822 336.403C277.998 337.08 277.166 337.743 276.321 338.379L276.502 338.7L331.09 431.071C333.618 429.39 336.119 427.653 338.559 425.828C343.842 421.857 348.951 417.55 353.879 412.916L279.117 336.704L278.822 336.403Z"
        fill="#4D5A31" />
    <path
        d="M323.159 431.83L321.309 428.692L270.355 342.473C269.322 343.102 268.269 343.677 267.217 344.251C266.151 344.839 265.085 345.379 263.999 345.905C254.21 350.635 243.617 353.055 233.004 353.055C226.051 353.055 219.105 352.03 212.388 349.986C211.241 349.637 210.121 349.179 208.995 348.769C207.862 348.366 206.716 348.01 205.603 347.546L168.031 440.566L166.563 444.21L165.302 447.333L165.295 447.347C165.389 447.388 165.49 447.422 165.584 447.463C165.691 447.504 165.791 447.539 165.892 447.586H165.905C165.932 447.6 165.959 447.607 165.979 447.614C166.864 447.99 167.756 448.304 168.648 448.66C169.767 449.104 170.88 449.555 172 449.972C172.576 450.184 173.14 450.43 173.709 450.635H173.716C185.491 454.872 197.667 457.844 210.048 459.501C210.537 459.563 211.013 459.631 211.503 459.699C212.005 459.761 212.515 459.809 213.025 459.87C213.977 459.98 214.929 460.089 215.887 460.185L216.598 460.246C217.771 460.362 218.945 460.465 220.111 460.547C220.513 460.581 220.916 460.595 221.311 460.629C222.337 460.697 223.363 460.759 224.389 460.807C225.019 460.848 225.649 460.861 226.279 460.889C227.097 460.916 227.908 460.95 228.726 460.978C229.9 461.005 231.086 461.012 232.266 461.019C232.548 461.019 232.823 461.025 233.104 461.032C242.994 461.032 252.883 460.191 262.664 458.517C262.825 458.489 262.993 458.462 263.161 458.442C264.193 458.257 265.226 458.059 266.258 457.867C266.848 457.751 267.445 457.635 268.021 457.519C268.625 457.389 269.235 457.266 269.838 457.129C270.844 456.917 271.85 456.692 272.862 456.452C273.043 456.411 273.224 456.377 273.405 456.322C288.276 452.795 302.637 447.327 316.126 440.088V440.081C317.011 439.609 317.876 439.069 318.754 438.577C319.8 437.996 320.839 437.387 321.885 436.779C322.602 436.362 323.333 435.972 324.051 435.535C324.057 435.528 324.064 435.521 324.071 435.521H324.077C324.091 435.514 324.098 435.508 324.111 435.501L324.124 435.487C324.131 435.487 324.138 435.48 324.145 435.48C324.158 435.473 324.165 435.467 324.178 435.46C324.218 435.432 324.258 435.412 324.299 435.385C324.527 435.241 324.761 435.104 324.996 434.961L323.159 431.83ZM187.413 222.507C188.238 221.823 189.076 221.167 189.914 220.524L189.733 220.21L135.145 127.832C132.611 129.52 130.11 131.263 127.663 133.088C122.387 137.053 117.271 141.353 112.357 145.981L187.118 222.199L187.413 222.507Z"
        fill="#93D500" />
    <path
        d="M107.174 151.06C106.323 151.928 105.518 152.823 104.687 153.698C103.862 154.58 103.017 155.455 102.206 156.344C96.748 162.36 91.6947 168.745 87.0809 175.456C86.8597 175.764 86.6451 176.092 86.4239 176.406C85.9143 177.172 85.4048 177.931 84.9087 178.696C84.3857 179.489 83.8695 180.296 83.3666 181.096C83.1789 181.39 82.9912 181.69 82.8102 181.984C65.6132 209.485 56.4012 240.676 55.1609 272.127C55.114 273.351 55.0872 274.574 55.0603 275.791C55.0402 277.008 55 278.231 55 279.448H160.884C160.884 278.231 160.991 277.015 161.058 275.791C161.118 274.567 161.132 273.344 161.253 272.127C162.62 258.073 167.944 244.347 177.223 232.822C177.974 231.885 178.825 231.003 179.636 230.101C180.434 229.192 181.185 228.255 182.043 227.38L107.174 151.06ZM325.64 124.264C325.499 124.175 325.345 124.086 325.204 123.997C324.272 123.416 323.333 122.855 322.388 122.295C321.845 121.974 321.295 121.659 320.752 121.345C320.196 121.03 319.653 120.716 319.096 120.408C318.139 119.877 317.18 119.348 316.22 118.822C316.066 118.747 315.918 118.665 315.764 118.583C309.556 115.275 303.18 112.363 296.67 109.833C296.502 109.765 296.334 109.697 296.167 109.635C294.745 109.095 293.324 108.555 291.889 108.049C280.319 103.934 268.365 101.041 256.215 99.4157L254.726 99.2107C254.224 99.1491 253.727 99.1013 253.231 99.0466C252.273 98.9304 251.32 98.821 250.355 98.7253C250.094 98.698 249.825 98.6843 249.55 98.6501C248.417 98.5476 247.271 98.4451 246.131 98.3562L244.797 98.2742C243.825 98.2126 242.833 98.1374 241.86 98.0964C241.338 98.0691 240.815 98.0486 240.298 98.0349V206.238C245.742 206.812 251.139 207.994 256.376 209.806L334.49 130.176C331.586 128.126 328.657 126.13 325.64 124.264Z"
        fill="#4D5A31" />
    <path
        d="M229.531 97.946C228.331 97.9734 227.131 97.9734 225.937 98.0212C218.448 98.3288 210.973 99.1081 203.558 100.38C203.397 100.407 203.236 100.434 203.068 100.462C202.029 100.646 200.997 100.838 199.964 101.036C199.381 101.152 198.791 101.261 198.201 101.378C197.591 101.501 196.987 101.63 196.377 101.767C195.372 101.979 194.366 102.205 193.367 102.444C193.179 102.478 192.998 102.526 192.817 102.567C177.955 106.105 163.596 111.563 150.09 118.809C149.211 119.287 148.353 119.827 147.475 120.313C146.429 120.9 145.383 121.502 144.344 122.11C143.573 122.568 142.788 122.985 142.017 123.45C142.011 123.457 141.997 123.464 141.991 123.464C141.937 123.498 141.883 123.532 141.83 123.559C141.629 123.689 141.421 123.792 141.22 123.915L141.226 123.929L143.083 127.066L195.881 216.43C196.914 215.801 197.966 215.22 199.019 214.645C200.078 214.064 201.151 213.518 202.23 212.998C209.692 209.367 217.712 207.076 225.937 206.224C227.131 206.101 228.324 205.998 229.524 205.937C230.718 205.875 231.918 205.814 233.118 205.814V97.8708C231.918 97.8708 230.724 97.9255 229.531 97.946Z"
        fill="#6BA43A" />
    <path
        d="M411.014 270.527C410.961 269.557 410.907 268.593 410.84 267.615C410.815 267.132 410.784 266.649 410.746 266.166C410.672 265.025 410.579 263.883 410.471 262.742C410.451 262.448 410.424 262.154 410.398 261.86C410.277 260.581 410.143 259.31 409.995 258.039C409.982 257.936 409.975 257.834 409.962 257.731L409.942 257.587C409.781 256.213 409.6 254.839 409.412 253.472L409.392 253.342C408.17 244.714 406.341 236.186 403.921 227.825C403.901 227.763 403.888 227.715 403.867 227.661C403.485 226.355 403.09 225.063 402.694 223.771C402.634 223.6 402.58 223.429 402.527 223.258C402.151 222.09 401.769 220.927 401.373 219.765L401.052 218.822C400.703 217.817 400.341 216.812 399.979 215.808C399.798 215.329 399.623 214.851 399.436 214.379C399.127 213.545 398.812 212.718 398.484 211.897C398.229 211.234 397.967 210.585 397.706 209.942C397.445 209.293 397.176 208.657 396.915 208.015C396.566 207.195 396.211 206.374 395.856 205.561C395.654 205.103 395.453 204.638 395.245 204.173C394.81 203.202 394.36 202.225 393.911 201.254C393.77 200.967 393.63 200.666 393.489 200.372C392.966 199.265 392.43 198.151 391.88 197.057C391.806 196.907 391.726 196.75 391.652 196.599C391.042 195.389 390.412 194.172 389.781 192.976C389.754 192.935 389.734 192.887 389.708 192.846C386.629 187.078 383.247 181.482 379.577 176.085L301.443 255.749C303.22 261.087 304.373 266.59 304.936 272.134H411.081C411.055 271.594 411.041 271.054 411.014 270.527Z"
        fill="#4D5A31" />
    <path
        d="M305.352 279.448C305.352 280.672 305.238 281.888 305.178 283.112C305.117 284.336 305.097 285.559 304.976 286.769C303.609 300.83 298.292 314.556 289.013 326.088C288.262 327.025 287.411 327.9 286.599 328.809C285.795 329.711 285.051 330.648 284.193 331.523L359.061 407.843C359.913 406.975 360.711 406.08 361.542 405.198C362.373 404.316 363.218 403.448 364.023 402.553C369.561 396.435 374.629 390.036 379.188 383.385C379.376 383.119 379.544 382.859 379.725 382.599C380.281 381.786 380.817 380.959 381.367 380.138C381.843 379.4 382.319 378.669 382.782 377.924C383.016 377.568 383.244 377.199 383.466 376.844C400.636 349.357 409.828 318.2 411.061 286.769C411.108 285.552 411.135 284.329 411.155 283.105C411.182 281.888 411.215 280.672 411.215 279.448H305.352Z"
        fill="#6BA43A" />
    <path
        d="M442.673 65.8113C423.304 46.0629 391.9 46.0629 372.531 65.8113C357.077 81.5608 353.986 105.11 363.191 124.017L255.142 234.175C236.597 224.797 213.494 227.941 198.04 243.69C178.671 263.439 178.677 295.457 198.04 315.206C217.416 334.954 248.826 334.947 268.196 315.206C283.649 299.449 286.733 275.9 277.528 256.993L385.578 146.842C404.129 156.221 427.219 153.076 442.673 137.32C462.042 117.578 462.042 85.5597 442.673 65.8113Z"
        fill="white" />
</svg>
    