<svg width="512" height="512" viewBox="0 0 512 512" fill="none" xmlns="http://www.w3.org/2000/svg">
    <path
        d="M161.286 286.768H55.161C55.1811 287.301 55.1945 287.827 55.2213 288.354C55.2615 289.372 55.3353 290.384 55.3956 291.403C55.4224 291.84 55.4426 292.278 55.4761 292.708C55.5565 293.884 55.6571 295.06 55.7644 296.229C55.7912 296.495 55.8113 296.762 55.8381 297.015C55.9588 298.32 56.0996 299.626 56.2471 300.918C56.2538 301.041 56.2672 301.171 56.2873 301.294C56.4549 302.688 56.6292 304.09 56.8304 305.477C56.8304 305.498 56.8304 305.518 56.8371 305.532C58.0606 314.177 59.8935 322.721 62.3213 331.097C62.3347 331.132 62.3481 331.166 62.3548 331.2C62.737 332.526 63.1393 333.838 63.5482 335.144C63.575 335.219 63.6019 335.301 63.622 335.377C63.6421 335.452 63.6689 335.527 63.6957 335.609C64.0712 336.791 64.4667 337.967 64.8623 339.15C64.9629 339.444 65.0634 339.745 65.1707 340.045C65.526 341.064 65.8881 342.082 66.2635 343.108C66.4378 343.566 66.6054 344.024 66.7731 344.488C67.1016 345.336 67.4167 346.177 67.7452 347.018C67.9933 347.653 68.248 348.289 68.5095 348.918C68.7777 349.581 69.0459 350.23 69.3207 350.894C69.656 351.7 70.0113 352.5 70.3599 353.306C70.5678 353.785 70.7823 354.257 70.9902 354.735C71.4192 355.699 71.8617 356.663 72.3109 357.62C72.4584 357.927 72.5992 358.235 72.7467 358.536C73.2697 359.643 73.7993 360.73 74.3357 361.817C74.4295 361.981 74.5033 362.152 74.5904 362.316C75.1938 363.519 75.8106 364.715 76.4476 365.905C76.4744 365.959 76.5079 366.007 76.528 366.069C76.6621 366.315 76.8096 366.554 76.9437 366.8L167.581 311.137L167.916 310.932C164.343 303.249 162.117 295.073 161.286 286.768Z"
        fill="#93D500" />
    <path
        d="M187.373 336.443L187.118 336.703L112.363 412.914C112.745 413.276 113.128 413.652 113.523 414C114.22 414.65 114.931 415.286 115.635 415.921C116.004 416.249 116.359 416.578 116.728 416.906C117.573 417.651 118.431 418.375 119.282 419.107C119.517 419.305 119.738 419.496 119.973 419.695C121.059 420.606 122.157 421.504 123.265 422.388C124.324 423.242 125.39 424.069 126.476 424.903C126.523 424.931 126.557 424.958 126.597 424.992C131.107 428.428 135.774 431.644 140.582 434.631C140.743 434.74 140.911 434.836 141.078 434.945C141.997 435.499 142.909 436.052 143.834 436.599L145.523 437.584C146.06 437.898 146.589 438.199 147.126 438.5C148.098 439.04 149.07 439.58 150.049 440.106C150.183 440.181 150.317 440.256 150.458 440.325C153.173 441.774 155.935 443.121 158.724 444.419L161.379 437.85L198.978 344.769L199.112 344.427C195.009 342.185 191.073 339.533 187.373 336.443Z"
        fill="#4D5A31" />
    <path
        d="M179.589 328.848C178.785 327.937 178.007 327.002 177.255 326.046C176.585 325.205 175.941 324.357 175.318 323.496C174.6 322.512 173.903 321.514 173.239 320.502C172.576 319.484 171.919 318.458 171.302 317.419L80.5506 373.15C81.9451 375.516 83.3933 377.812 84.8817 380.082C84.9286 380.164 84.9755 380.246 85.0292 380.321C85.0426 380.355 85.0627 380.376 85.0828 380.41C85.1297 380.478 85.1767 380.56 85.2236 380.636C85.2303 380.642 85.237 380.649 85.237 380.663C85.3577 380.841 85.4784 381.018 85.599 381.203C85.6058 381.21 85.6125 381.223 85.6259 381.237C85.6393 381.251 85.6326 381.244 85.6326 381.251C87.2081 383.623 88.8306 385.961 90.5 388.244C90.5335 388.292 90.5737 388.339 90.6073 388.387C90.6475 388.435 90.681 388.483 90.7145 388.531C91.4453 389.508 92.1694 390.486 92.9203 391.456C93.0209 391.586 93.1147 391.709 93.222 391.832C93.9863 392.837 94.7707 393.828 95.5686 394.806C95.7563 395.038 95.9507 395.271 96.1384 395.51C96.8558 396.385 97.5732 397.253 98.304 398.114C98.6191 398.484 98.9409 398.859 99.2627 399.222C99.8862 399.946 100.503 400.671 101.14 401.382C101.489 401.771 101.851 402.168 102.206 402.558C102.367 402.742 102.528 402.913 102.695 403.098C103.158 403.61 103.621 404.123 104.09 404.629C104.278 404.827 104.479 405.025 104.666 405.23C105.491 406.105 106.329 406.987 107.174 407.848L182.042 331.528C181.184 330.653 180.38 329.751 179.589 328.848Z"
        fill="#6BA43A" />
    <path
        d="M278.821 336.402C277.996 337.079 277.165 337.742 276.32 338.377L276.501 338.699L331.089 431.069C333.616 429.388 336.117 427.651 338.558 425.826C343.841 421.855 348.949 417.548 353.877 412.914L279.116 336.703L278.821 336.402Z"
        fill="#4D5A31" />
    <path
        d="M323.158 431.828L321.307 428.69L270.353 342.472C269.321 343.101 268.268 343.675 267.216 344.249C266.15 344.837 265.084 345.377 263.998 345.903C254.209 350.634 243.616 353.054 233.003 353.054C226.05 353.054 219.105 352.028 212.387 349.984C211.24 349.636 210.121 349.178 208.994 348.768C207.861 348.364 206.715 348.009 205.602 347.544L168.03 440.564L166.562 444.207L165.301 447.331L165.295 447.345C165.389 447.386 165.489 447.42 165.583 447.461C165.69 447.502 165.791 447.536 165.891 447.584H165.905C165.932 447.598 165.959 447.605 165.979 447.612C166.864 447.988 167.755 448.302 168.647 448.657C169.767 449.102 170.88 449.553 171.999 449.97C172.576 450.182 173.139 450.428 173.709 450.633H173.716C185.49 454.87 197.667 457.841 210.047 459.499C210.536 459.56 211.012 459.629 211.502 459.697C212.005 459.759 212.514 459.806 213.024 459.868C213.976 459.977 214.928 460.087 215.886 460.182L216.597 460.244C217.77 460.36 218.944 460.463 220.11 460.545C220.513 460.579 220.915 460.593 221.31 460.627C222.336 460.695 223.362 460.757 224.388 460.804C225.018 460.845 225.648 460.859 226.278 460.886C227.096 460.914 227.908 460.948 228.725 460.975C229.899 461.003 231.085 461.01 232.265 461.016C232.547 461.016 232.822 461.023 233.103 461.03C242.993 461.03 252.882 460.189 262.663 458.514C262.824 458.487 262.992 458.46 263.159 458.439C264.192 458.255 265.224 458.056 266.257 457.865C266.847 457.749 267.444 457.633 268.02 457.516C268.624 457.387 269.234 457.264 269.837 457.127C270.843 456.915 271.848 456.689 272.861 456.45C273.042 456.409 273.223 456.375 273.404 456.32C288.274 452.793 302.635 447.324 316.125 440.085V440.079C317.01 439.607 317.874 439.067 318.753 438.575C319.799 437.994 320.838 437.385 321.884 436.777C322.601 436.36 323.332 435.97 324.049 435.533C324.056 435.526 324.063 435.519 324.069 435.519H324.076C324.089 435.512 324.096 435.506 324.11 435.499L324.123 435.485C324.13 435.485 324.136 435.478 324.143 435.478C324.156 435.471 324.163 435.465 324.177 435.458C324.217 435.43 324.257 435.41 324.297 435.383C324.525 435.239 324.76 435.102 324.995 434.959L323.158 431.828ZM187.413 222.506C188.237 221.822 189.075 221.166 189.913 220.523L189.732 220.209L135.145 127.831C132.611 129.52 130.11 131.263 127.663 133.088C122.386 137.053 117.271 141.352 112.357 145.98L187.118 222.198L187.413 222.506Z"
        fill="#93D500" />
    <path
        d="M107.174 151.059C106.322 151.927 105.518 152.823 104.687 153.698C103.862 154.579 103.017 155.454 102.206 156.343C96.7478 162.359 91.6945 168.745 87.0807 175.456C86.8595 175.763 86.645 176.091 86.4237 176.406C85.9142 177.171 85.4046 177.93 84.9085 178.696C84.3856 179.489 83.8693 180.295 83.3665 181.095C83.1788 181.389 82.991 181.69 82.81 181.984C65.6131 209.484 56.4012 240.675 55.1609 272.126C55.114 273.349 55.0872 274.573 55.0603 275.79C55.0402 277.007 55 278.23 55 279.447H160.883C160.883 278.23 160.99 277.013 161.058 275.79C161.118 274.566 161.131 273.343 161.252 272.126C162.62 258.072 167.943 244.346 177.222 232.821C177.973 231.884 178.824 231.002 179.636 230.1C180.433 229.191 181.184 228.254 182.042 227.379L107.174 151.059ZM325.638 124.263C325.497 124.174 325.343 124.085 325.202 123.997C324.27 123.416 323.332 122.855 322.386 122.294C321.843 121.973 321.294 121.659 320.751 121.344C320.194 121.03 319.651 120.715 319.095 120.408C318.137 119.877 317.179 119.348 316.218 118.822C316.064 118.747 315.917 118.665 315.762 118.583C309.554 115.274 303.178 112.362 296.668 109.833C296.501 109.765 296.333 109.696 296.165 109.635C294.744 109.095 293.323 108.555 291.888 108.049C280.318 103.934 268.363 101.041 256.214 99.4155L254.725 99.2104C254.222 99.1489 253.726 99.101 253.23 99.0463C252.271 98.9301 251.319 98.8208 250.354 98.7251C250.092 98.6977 249.824 98.684 249.549 98.6499C248.416 98.5473 247.27 98.4448 246.13 98.3559L244.796 98.2739C243.824 98.2124 242.832 98.1372 241.859 98.0962C241.336 98.0688 240.814 98.0483 240.297 98.0347V206.237C245.741 206.811 251.138 207.993 256.375 209.805L334.488 130.176C331.585 128.125 328.655 126.129 325.638 124.263Z"
        fill="#4D5A31" />
    <path
        d="M229.53 97.9458C228.33 97.9731 227.13 97.9731 225.936 98.021C218.448 98.3286 210.972 99.1078 203.557 100.379C203.396 100.407 203.235 100.434 203.068 100.461C202.028 100.646 200.996 100.837 199.963 101.036C199.38 101.152 198.79 101.261 198.2 101.377C197.59 101.5 196.987 101.63 196.377 101.767C195.371 101.979 194.365 102.204 193.366 102.444C193.179 102.478 192.998 102.526 192.817 102.567C177.954 106.105 163.596 111.563 150.089 118.808C149.211 119.287 148.353 119.827 147.474 120.312C146.428 120.9 145.383 121.502 144.343 122.11C143.572 122.568 142.788 122.985 142.017 123.45C142.01 123.457 141.997 123.463 141.99 123.463C141.937 123.498 141.883 123.532 141.829 123.559C141.628 123.689 141.42 123.791 141.219 123.915L141.226 123.928L143.083 127.066L195.88 216.429C196.913 215.8 197.966 215.219 199.018 214.645C200.077 214.064 201.15 213.517 202.23 212.997C209.691 209.366 217.711 207.075 225.936 206.223C227.13 206.1 228.323 205.997 229.523 205.936C230.717 205.874 231.917 205.813 233.117 205.813V97.8706C231.917 97.8706 230.723 97.9253 229.53 97.9458Z"
        fill="#6BA43A" />
    <path
        d="M411.012 270.526C410.959 269.556 410.905 268.592 410.838 267.614C410.813 267.131 410.782 266.648 410.744 266.165C410.671 265.024 410.577 263.882 410.469 262.74C410.449 262.447 410.422 262.153 410.396 261.859C410.275 260.58 410.141 259.309 409.993 258.037C409.98 257.935 409.973 257.832 409.96 257.73L409.94 257.586C409.779 256.212 409.598 254.838 409.41 253.471L409.39 253.341C408.168 244.713 406.339 236.185 403.919 227.824C403.899 227.762 403.886 227.714 403.866 227.66C403.483 226.354 403.088 225.062 402.692 223.77C402.632 223.599 402.578 223.428 402.525 223.258C402.149 222.089 401.767 220.927 401.371 219.765L401.05 218.821C400.701 217.816 400.339 216.811 399.977 215.807C399.796 215.328 399.622 214.85 399.434 214.378C399.125 213.544 398.81 212.717 398.482 211.897C398.227 211.234 397.966 210.584 397.704 209.942C397.443 209.292 397.174 208.657 396.913 208.014C396.564 207.194 396.209 206.373 395.854 205.56C395.653 205.102 395.451 204.637 395.244 204.172C394.808 203.202 394.359 202.224 393.909 201.253C393.769 200.966 393.628 200.666 393.487 200.372C392.964 199.264 392.428 198.15 391.878 197.056C391.804 196.906 391.724 196.749 391.65 196.598C391.04 195.388 390.41 194.172 389.779 192.975C389.753 192.934 389.733 192.887 389.706 192.846C386.627 187.077 383.245 181.482 379.575 176.084L301.442 255.748C303.218 261.086 304.372 266.589 304.935 272.133H411.08C411.053 271.593 411.039 271.053 411.012 270.526Z"
        fill="#4D5A31" />
    <path
        d="M305.35 279.447C305.35 280.67 305.236 281.887 305.176 283.111C305.116 284.334 305.096 285.558 304.975 286.768C303.607 300.829 298.291 314.555 289.012 326.087C288.261 327.023 287.409 327.898 286.598 328.807C285.794 329.71 285.049 330.646 284.191 331.521L359.06 407.842C359.911 406.973 360.709 406.078 361.54 405.196C362.372 404.314 363.216 403.446 364.021 402.551C369.559 396.433 374.627 390.035 379.186 383.383C379.374 383.117 379.542 382.857 379.723 382.597C380.279 381.784 380.816 380.957 381.365 380.137C381.841 379.398 382.317 378.667 382.78 377.922C383.015 377.566 383.243 377.197 383.464 376.842C400.634 349.355 409.826 318.198 411.059 286.768C411.106 285.551 411.133 284.328 411.153 283.104C411.18 281.887 411.214 280.67 411.214 279.447H305.35Z"
        fill="#6BA43A" />
    <path
        d="M442.671 65.8112C423.302 46.0629 391.898 46.0629 372.529 65.8112C357.075 81.5606 353.984 105.11 363.19 124.017L255.141 234.174C236.596 224.796 213.493 227.94 198.039 243.689C178.67 263.438 178.677 295.456 198.039 315.204C217.415 334.953 248.825 334.946 268.194 315.204C283.648 299.448 286.732 275.899 277.527 256.992L385.576 146.841C404.127 156.22 427.217 153.076 442.671 137.319C462.04 117.578 462.04 85.5595 442.671 65.8112Z"
        fill="#424143" />
</svg>
    